<?xml version="1.0" encoding="UTF-8" standalone="no"?>
<!DOCTYPE svg PUBLIC "-//W3C//DTD SVG 1.1//EN"
"http://www.w3.org/Graphics/SVG/1.1/DTD/svg11.dtd">


<!-- Page 1 -->
<svg x="0" y="0" width="908" height="1286" viewBox="0 0 908 1286" version="1.1" xmlns="http://www.w3.org/2000/svg" xmlns:xlink="http://www.w3.org/1999/xlink"
style="display: block;margin-left: auto;margin-right: auto;">
<defs>

<style type="text/css"><![CDATA[

.g1_1{
fill: none;
stroke: #000000;
stroke-width: 1.4666667;
stroke-linecap: butt;
stroke-linejoin: miter;
}

.s4_1{
font-size: 22.92px;
font-family: --_b;
fill: #000000;
}
.s5_1{
font-size: 16.13px;
font-family: Wingdings_k;
fill: #000000;
}
.s2_1{
font-size: 18.33px;
font-family: --_c;
fill: #000000;
}
.s6_1{
font-size: 18.33px;
font-family: Wingdings_k;
fill: #000000;
}
.s3_1{
font-size: 18.33px;
font-family: --_b;
fill: #000000;
}
.s1_1{
font-size: 27.50px;
font-family: --_b;
fill: #000000;
}

]]></style>

</defs>
<path d="M0,0
L0,1286
L908,1286
L908,0 Z " 
fill="#FFFFFF" stroke="none" />
<text 
x="86" 
y="70" 
dx="0,0.2,0.2" 
class="s1_1"
>陈金昌</text>

<text 
x="86" 
y="106" 
dx="0,0,0,0,0" 
class="s2_1"
>Phone</text>

<text 
x="132" 
y="106" 
dx="0" 
class="s3_1"
>：</text>

<text 
x="150" 
y="106" 
dx="0,0,0,0,0,0,0,0,0,0,0,0,0,0" 
class="s2_1"
>178 6270 0521 </text>

<text 
x="471" 
y="106" 
dx="0,0,0,0,0" 
class="s2_1"
>Email</text>

<text 
x="517" 
y="106" 
dx="0" 
class="s3_1"
>：</text>

<text 
x="535" 
y="106" 
dx="0,0,0,0,0,0,0,0,0,0,0,0,0,0,0,0,0,0,0,0,0,0" 
class="s2_1"
>cjc1005819688@163.com </text>

<text 
x="86" 
y="136" 
dx="0,0,0,0,0,0" 
class="s2_1"
>GitHub</text>

<text 
x="141" 
y="136" 
dx="0" 
class="s3_1"
>：</text>

<text 
x="159" 
y="136" 
dx="0,0,0,0,0,0,0,0,0,0,0,0,0,0,0,0,0,0,0,0,0,0,0,0,0,0,0,0" 
class="s2_1"
>github.com/makeitpossible16 </text>

<text 
x="471" 
y="136" 
dx="0,0,0,0" 
class="s2_1"
>Blog</text>

<text 
x="508" 
y="136" 
dx="0" 
class="s3_1"
>：</text>

<text 
x="526" 
y="136" 
dx="0,0,0,0,0,0,0,0,0,0,0,0,0,0,0,0,0,0,0,0,0,0,0,0,0,0,0" 
class="s2_1"
>makeitpossible16.github.io </text>

<text 
x="86" 
y="185" 
dx="0,0.2,0,0.2" 
class="s4_1"
>求职意向</text>

<text 
x="247" 
y="185" 
dx="0,0,0.2,0,0.2,0,0.2" 
class="s4_1"
>系统研发工程师</text>

<text 
x="86" 
y="229" 
dx="0,0.2,0,0.2" 
class="s4_1"
>教育背景</text>

<text 
x="86" 
y="262" 
dx="0" 
class="s5_1"
></text>

<text 
x="136" 
y="262" 
dx="0,0,0,0,0,0,0,0" 
class="s2_1"
>2014.09 </text>

<text 
x="209" 
y="262" 
dx="0" 
class="s3_1"
>–</text>

<text 
x="237" 
y="262" 
dx="0,0" 
class="s3_1"
>至今</text>

<text 
x="328" 
y="262" 
dx="0,0,0,0,0,0,0,0,0,0,0" 
class="s3_1"
>哈尔滨工业大学（威海）</text>

<text 
x="566" 
y="262" 
dx="0,0,0,0,0,0,0,0" 
class="s3_1"
>软件工程（本科）</text>

<text 
x="86" 
y="292" 
dx="0" 
class="s5_1"
></text>

<text 
x="132" 
y="292" 
dx="0,0,0,0,0,0,0,0,0,0" 
class="s3_1"
>相关技能：英语、粤语</text>

<text 
x="86" 
y="341" 
dx="0,0.2,0,0.2" 
class="s4_1"
>专业技能</text>

<text 
x="86" 
y="374" 
dx="0" 
class="s6_1"
></text>

<text 
x="118" 
y="374" 
dx="0,0" 
class="s3_1"
>熟悉</text>

<text 
x="159" 
y="374" 
dx="0,0,0,0,0,0" 
class="s2_1"
>python</text>

<text 
x="214" 
y="374" 
dx="0,0,0" 
class="s3_1"
>，了解</text>

<text 
x="274" 
y="374" 
dx="0,0,0" 
class="s2_1"
>C++</text>

<text 
x="302" 
y="374" 
dx="0" 
class="s3_1"
>、</text>

<text 
x="320" 
y="374" 
dx="0,0" 
class="s2_1"
>go</text>

<text 
x="338" 
y="374" 
dx="0" 
class="s3_1"
>、</text>

<text 
x="357" 
y="374" 
dx="0,0,0,0" 
class="s2_1"
>JAVA</text>

<text 
x="393" 
y="374" 
dx="0" 
class="s3_1"
>、</text>

<text 
x="412" 
y="374" 
dx="0" 
class="s2_1"
>C</text>

<text 
x="425" 
y="374" 
dx="0,0,0" 
class="s3_1"
>语言；</text>

<text 
x="86" 
y="403" 
dx="0" 
class="s6_1"
></text>

<text 
x="118" 
y="403" 
dx="0,0,0,0,0,0,0" 
class="s3_1"
>常用操作环境为</text>

<text 
x="251" 
y="403" 
dx="0,0,0,0,0,0,0" 
class="s2_1"
>ubuntu,</text>

<text 
x="315" 
y="403" 
dx="0,0" 
class="s3_1"
>接近</text>

<text 
x="357" 
y="403" 
dx="0" 
class="s2_1"
>3</text>

<text 
x="370" 
y="403" 
dx="0" 
class="s3_1"
>年</text>

<text 
x="393" 
y="403" 
dx="0,0,0,0,0" 
class="s2_1"
>linux</text>

<text 
x="444" 
y="403" 
dx="0,0,0,0,0" 
class="s3_1"
>使用经验；</text>

<text 
x="86" 
y="433" 
dx="0" 
class="s6_1"
></text>

<text 
x="118" 
y="433" 
dx="0,0" 
class="s3_1"
>了解</text>

<text 
x="159" 
y="433" 
dx="0,0,0,0,0" 
class="s2_1"
>Linux</text>

<text 
x="210" 
y="433" 
dx="0,0,0,0,0" 
class="s3_1"
>文件系统；</text>

<text 
x="86" 
y="463" 
dx="0" 
class="s6_1"
></text>

<text 
x="118" 
y="463" 
dx="0,1.3,1.3,1.3,1.3,1.3,1.3,1.1,1.3,1.3,1.3,1.3" 
class="s3_1"
>了解分布式存储领域，了解</text>

<text 
x="362" 
y="463" 
dx="0,0,0,0,0,0,0,0,0,0,5.5,0,0,0,0" 
class="s2_1"
>openstack swift</text>

<text 
x="515" 
y="463" 
dx="0,1.3,1.3,1.3,1.3" 
class="s3_1"
>对象存储，</text>

<text 
x="613" 
y="463" 
dx="0,0,0,0,0,-0.2,0,0,0" 
class="s2_1"
>seaweedfs</text>

<text 
x="706" 
y="463" 
dx="0,1.3,1.3,1.3,1.3,1.3" 
class="s3_1"
>存储系统，有</text>

<text 
x="118" 
y="492" 
dx="0,0,0,0,0,0,0,0,0,0,0,0,0,0,0" 
class="s2_1"
>openstack swift</text>

<text 
x="260" 
y="492" 
dx="0" 
class="s3_1"
>及</text>

<text 
x="283" 
y="492" 
dx="0,0,0,0,0,0,0,0,0" 
class="s2_1"
>seaweedfs</text>

<text 
x="370" 
y="492" 
dx="0,0,0,0,0,0,0" 
class="s3_1"
>源码阅读经验；</text>

<text 
x="86" 
y="522" 
dx="0" 
class="s6_1"
></text>

<text 
x="118" 
y="522" 
dx="0,0" 
class="s3_1"
>了解</text>

<text 
x="159" 
y="522" 
dx="0,0,0,0,0,0" 
class="s2_1"
>Docker</text>

<text 
x="219" 
y="522" 
dx="0,0,0,0,0,0,0" 
class="s3_1"
>基本使用方法；</text>

<text 
x="86" 
y="552" 
dx="0" 
class="s6_1"
></text>

<text 
x="118" 
y="552" 
dx="0,0,0,0,0,0,0,0,0,0,0,0,0,0" 
class="s3_1"
>具有完整的软件开发基本知识；</text>

<text 
x="86" 
y="602" 
dx="0,0.2,0,0.2" 
class="s4_1"
>项目经验</text>

<text 
x="86" 
y="640" 
dx="0" 
class="s5_1"
></text>

<text 
x="114" 
y="640" 
dx="0,0.2,0,0.2,0,0,0.2,0,0.2,0,0,0.2,0,0.2,0" 
class="s2_1"
>Openstack swift</text>

<text 
x="257" 
y="640" 
dx="0,0.2,0,0.2,0,0.2,0" 
class="s3_1"
>小文件存储优化</text>

<text 
x="86" 
y="669" 
dx="0,0.2,0,0.2,0,0.2,0,0,0,0,-0.2,0,0,0,0,0,0,0,0" 
class="s3_1"
>项目简介：研究生学长毕业设计项目，基于</text>

<text 
x="439" 
y="671" 
dx="0,0,0,0,0,0,0,0,0,0,0,0,0,0,0" 
class="s2_1"
>openstack swift</text>

<text 
x="577" 
y="671" 
dx="0,0,0,0,0,0,0,0,0,0,0,0,0" 
class="s3_1"
>，针对小文件存储进行优化。</text>

<text 
x="86" 
y="701" 
dx="0,0.2,0,0.2,0,0,0,0,0,0,-0.2,0,0" 
class="s3_1"
>职责：协助完成环境搭建工作</text>

<text 
x="325" 
y="701" 
dx="0" 
class="s2_1"
>,</text>

<text 
x="334" 
y="702" 
dx="0,0" 
class="s3_1"
>使用</text>

<text 
x="375" 
y="702" 
dx="0,0,0,0,0,0" 
class="s2_1"
>python</text>

<text 
x="435" 
y="702" 
dx="0,-0.2,0,0,0,0,0,0,0,0" 
class="s3_1"
>协助完成基本脚本编写</text>

<text 
x="86" 
y="732" 
dx="0" 
class="s5_1"
></text>

<text 
x="114" 
y="732" 
dx="0,0.2,0,0.2,0,0,0.2,0,0.2,0,0,0.2,0,0.2,0,0,0.2,0,0,0.2" 
class="s2_1"
>Swift-weedfs-backend</text>

<text 
x="86" 
y="762" 
dx="0,0.3,0.5,0.3,0.3,0.6,0.4" 
class="s3_1"
>项目简介：借助</text>

<text 
x="226" 
y="763" 
dx="0,0,0,0,0,-0.2,0,0,0" 
class="s2_1"
>seaweedfs</text>

<text 
x="318" 
y="763" 
dx="0,0.3,0.3,0.3,0.3,0.3,0.3,0.2,0.3,0.3,0.3,0.6,0.4,0.4" 
class="s3_1"
>在小文件存储方面的优势，改写</text>

<text 
x="588" 
y="763" 
dx="0,0,0,0,0,-0.2,0,0,0,0,4.6,0,0,0,0" 
class="s2_1"
>openstack swift</text>

<text 
x="739" 
y="763" 
dx="0" 
class="s3_1"
>中</text>

<text 
x="767" 
y="763" 
dx="0,0,0,0,0,0.2,0" 
class="s2_1"
>object </text>

<text 
x="178" 
y="793" 
dx="0,0,0,0,0,0" 
class="s2_1"
>server</text>

<text 
x="238" 
y="793" 
dx="0,0,0,0,0,0,0,0" 
class="s3_1"
>的后端存储实现。</text>

<text 
x="86" 
y="823" 
dx="0,0.7,0.7,0.9,0.5,0.7,0.7,0.5,0.7" 
class="s3_1"
>职责：完成全部工作</text>

<text 
x="257" 
y="823" 
dx="0" 
class="s2_1"
>,</text>

<text 
x="267" 
y="823" 
dx="0,0.7,0.7,0.7" 
class="s3_1"
>包括改写</text>

<text 
x="352" 
y="823" 
dx="0,0,0,0,0,0,0,0,0" 
class="s2_1"
>seaweedfs</text>

<text 
x="444" 
y="823" 
dx="0" 
class="s3_1"
>的</text>

<text 
x="472" 
y="823" 
dx="0,0,0" 
class="s2_1"
>CLI</text>

<text 
x="509" 
y="823" 
dx="0,0.7,0.7" 
class="s3_1"
>实现和</text>

<text 
x="575" 
y="823" 
dx="0,0,0,0,0,0,0,4.9,0,0,0,0,0" 
class="s2_1"
>object server</text>

<text 
x="709" 
y="823" 
dx="0,0.7,0.7,0.7,0.5,0.5" 
class="s3_1"
>中存储虚拟层</text>

<text 
x="86" 
y="852" 
dx="0,0,0,0,0,0,0,0" 
class="s2_1"
>diskfile</text>

<text 
x="164" 
y="852" 
dx="0,0,0,0,0,0,0,0" 
class="s3_1"
>相关接口的改写。</text>

<text 
x="86" 
y="882" 
dx="0" 
class="s5_1"
></text>

<text 
x="114" 
y="882" 
dx="0,0.2,0,0.2,0,0,0.2,0,0.2,0" 
class="s3_1"
>云计算平台搭建及使用</text>

<text 
x="86" 
y="912" 
dx="0,0.2,0,0.2,0,0.2,0" 
class="s3_1"
>项目简介：使用</text>

<text 
x="220" 
y="912" 
dx="0,0,0,0,0,-0.2,0,0,0,0" 
class="s2_1"
>CloudStack</text>

<text 
x="316" 
y="912" 
dx="0,0,0,0,0,0,0,0" 
class="s3_1"
>搭建私有云平台。</text>

<text 
x="86" 
y="941" 
dx="0,2.2,2.4,2.2,2.2,2.2,2.2,2,2.2,2,2.2,2.2,2.2,2.2,2.4,2,2.2,2.2,2,2.2,2.2,2.3,2.2,2.2,2,2.2,2.3,2,2.2,2.2,2.2,2.2,2.2,2,2.2,2.2" 
class="s3_1"
>职责：主导完成云平台搭建工作，包括主机规划，网络规划，主机操作系统安装，</text>

<text 
x="86" 
y="971" 
dx="0,0,0,0,0,0,0,0,0,0" 
class="s2_1"
>CloudStack</text>

<text 
x="182" 
y="971" 
dx="0,0,0,0,0" 
class="s3_1"
>搭建工作。</text>

<text 
x="86" 
y="1001" 
dx="0" 
class="s5_1"
></text>

<text 
x="114" 
y="1001" 
dx="0,0.2,0,0.2,0,0" 
class="s3_1"
>有道词典修改</text>

<text 
x="86" 
y="1031" 
dx="0,0.2,0,0.2,0,0.2,0" 
class="s3_1"
>项目简介：借助</text>

<text 
x="221" 
y="1031" 
dx="0,0,0,0,0,-0.2" 
class="s2_1"
>python</text>

<text 
x="283" 
y="1031" 
dx="0" 
class="s3_1"
>的</text>

<text 
x="307" 
y="1031" 
dx="0,0,0,0,0,0,0,0,0,0" 
class="s2_1"
>mtranslate</text>

<text 
x="405" 
y="1031" 
dx="0,0,0.2,0,0" 
class="s3_1"
>模块，修改</text>

<text 
x="504" 
y="1031" 
dx="0,0,0,0,0,0" 
class="s2_1"
>debian</text>

<text 
x="565" 
y="1031" 
dx="0,0,0,0.2,0,0,0,0,0,0,0,0,0,0.1" 
class="s3_1"
>版本有道词典的弹框翻译实现，</text>

<text 
x="86" 
y="1060" 
dx="0,0,0,0,0,0,0,0,0,0,0,0,0,0,0,0,0,0,0,0,0,0,0,0,0,0,0" 
class="s3_1"
>最终替换为谷歌翻译，实现词组翻译，并添加保存单词功能。</text>

<text 
x="86" 
y="1090" 
dx="0,0.2,0,0.2,0,0,0,0,0,0,-0.2,0,0,0" 
class="s3_1"
>职责：完成全部工作，包括改写</text>

<text 
x="348" 
y="1090" 
dx="0,0,0" 
class="s2_1"
>GUI</text>

<text 
x="380" 
y="1090" 
dx="0,0,0,0,0,0,0,0,0,0,0" 
class="s3_1"
>及保存单词功能的实现。</text>

<text 
x="86" 
y="1140" 
dx="0,0.2" 
class="s4_1"
>其他</text>

<text 
x="86" 
y="1165" 
dx="0" 
class="s6_1"
></text>

<text 
x="118" 
y="1165" 
dx="0,0,0,0,0,0,0,0" 
class="s2_1"
>2016.07 </text>

<text 
x="191" 
y="1165" 
dx="0" 
class="s3_1"
>–</text>

<text 
x="219" 
y="1165" 
dx="0,0,0,0,0,0,0" 
class="s2_1"
>2016.08</text>

<text 
x="283" 
y="1165" 
dx="0" 
class="s3_1"
>：</text>

<text 
x="311" 
y="1165" 
dx="0,0,0,0,0,0,0,0,0,0,0,0,0,0,0,0,0" 
class="s3_1"
>大连华信实习培训（学校统一安排）；</text>

<text 
x="86" 
y="1189" 
dx="0" 
class="s6_1"
></text>

<text 
x="118" 
y="1189" 
dx="0,0,0,0,0,0,0,0,0,0" 
class="s3_1"
>科技立项校级一等奖；</text>

<path d="M87.5,312.2l736.1,0" class="g1_1" />
<path d="M88.9,570.7l736.2,0" class="g1_1" />
<path d="M87.5,200.7l736.1,0" class="g1_1" />
<path d="M87.5,156.2l736.1,0" class="g1_1" />
<path d="M86.5,1107.9l736.2,0" class="g1_1" />


<!-- Any embedded fonts defined here -->
<style type="text/css" ><![CDATA[

@font-face {
	font-family: --_c;
	src: url("fonts/--_c.woff") format("woff");
}

@font-face {
	font-family: Wingdings_k;
	src: url("fonts/Wingdings_k.woff") format("woff");
}

@font-face {
	font-family: --_b;
	src: url("fonts/--_b.woff") format("woff");
}

]]></style>

</svg>
